<mxfile host="app.diagrams.net" modified="2022-02-09T19:29:56.243Z" agent="5.0 (Windows NT 10.0; Win64; x64) AppleWebKit/537.36 (KHTML, like Gecko) Chrome/97.0.4692.99 Safari/537.36" etag="nDUbOHlwOQy9wtry31xq" version="16.5.5" type="github">
  <diagram id="hZWZhFXcMOGEttDMzRuV" name="Page-1">
    <mxGraphModel dx="868" dy="482" grid="1" gridSize="10" guides="1" tooltips="1" connect="1" arrows="1" fold="1" page="1" pageScale="1" pageWidth="827" pageHeight="1169" math="0" shadow="0">
      <root>
        <mxCell id="0" />
        <mxCell id="1" parent="0" />
        <mxCell id="t60WEqd_9vHMMKLTzPeI-1" value="frame" style="shape=umlFrame;whiteSpace=wrap;html=1;" vertex="1" parent="1">
          <mxGeometry x="260" y="30" width="510" height="530" as="geometry" />
        </mxCell>
        <mxCell id="t60WEqd_9vHMMKLTzPeI-4" value="Employe" style="shape=umlActor;verticalLabelPosition=bottom;verticalAlign=top;html=1;" vertex="1" parent="1">
          <mxGeometry x="70" y="60" width="30" height="60" as="geometry" />
        </mxCell>
        <mxCell id="t60WEqd_9vHMMKLTzPeI-5" value="Adherent" style="shape=umlActor;verticalLabelPosition=bottom;verticalAlign=top;html=1;" vertex="1" parent="1">
          <mxGeometry x="70" y="290" width="30" height="60" as="geometry" />
        </mxCell>
        <mxCell id="t60WEqd_9vHMMKLTzPeI-7" value="authentifier" style="ellipse;whiteSpace=wrap;html=1;" vertex="1" parent="1">
          <mxGeometry x="309" y="45" width="90" height="30" as="geometry" />
        </mxCell>
        <mxCell id="t60WEqd_9vHMMKLTzPeI-8" value="enregistrer" style="ellipse;whiteSpace=wrap;html=1;" vertex="1" parent="1">
          <mxGeometry x="270" y="110" width="105" height="30" as="geometry" />
        </mxCell>
        <mxCell id="t60WEqd_9vHMMKLTzPeI-9" value="reserver cd-rom" style="ellipse;whiteSpace=wrap;html=1;" vertex="1" parent="1">
          <mxGeometry x="275" y="170" width="100" height="30" as="geometry" />
        </mxCell>
        <mxCell id="t60WEqd_9vHMMKLTzPeI-10" value="inscrir" style="ellipse;whiteSpace=wrap;html=1;" vertex="1" parent="1">
          <mxGeometry x="270" y="240" width="105" height="30" as="geometry" />
        </mxCell>
        <mxCell id="t60WEqd_9vHMMKLTzPeI-11" value="emprunter cd-rom" style="ellipse;whiteSpace=wrap;html=1;" vertex="1" parent="1">
          <mxGeometry x="264.5" y="330" width="95.5" height="40" as="geometry" />
        </mxCell>
        <mxCell id="t60WEqd_9vHMMKLTzPeI-12" value="payer cotisation" style="ellipse;whiteSpace=wrap;html=1;" vertex="1" parent="1">
          <mxGeometry x="305.25" y="410" width="117.5" height="40" as="geometry" />
        </mxCell>
        <mxCell id="t60WEqd_9vHMMKLTzPeI-13" value="rendre cd-rom" style="ellipse;whiteSpace=wrap;html=1;" vertex="1" parent="1">
          <mxGeometry x="316.5" y="490" width="100" height="40" as="geometry" />
        </mxCell>
        <mxCell id="t60WEqd_9vHMMKLTzPeI-14" value="organiser" style="ellipse;whiteSpace=wrap;html=1;" vertex="1" parent="1">
          <mxGeometry x="570" y="40" width="100" height="40" as="geometry" />
        </mxCell>
        <mxCell id="t60WEqd_9vHMMKLTzPeI-15" value="avertir" style="ellipse;whiteSpace=wrap;html=1;" vertex="1" parent="1">
          <mxGeometry x="570" y="150" width="110" height="40" as="geometry" />
        </mxCell>
        <mxCell id="t60WEqd_9vHMMKLTzPeI-16" value="verifier" style="ellipse;whiteSpace=wrap;html=1;" vertex="1" parent="1">
          <mxGeometry x="580" y="240" width="110" height="40" as="geometry" />
        </mxCell>
        <mxCell id="t60WEqd_9vHMMKLTzPeI-17" value="" style="endArrow=none;html=1;rounded=0;entryX=0;entryY=1;entryDx=0;entryDy=0;" edge="1" parent="1" target="t60WEqd_9vHMMKLTzPeI-9">
          <mxGeometry relative="1" as="geometry">
            <mxPoint x="90" y="320" as="sourcePoint" />
            <mxPoint x="240" y="320" as="targetPoint" />
          </mxGeometry>
        </mxCell>
        <mxCell id="t60WEqd_9vHMMKLTzPeI-18" value="" style="endArrow=none;html=1;rounded=0;" edge="1" parent="1" target="t60WEqd_9vHMMKLTzPeI-10">
          <mxGeometry relative="1" as="geometry">
            <mxPoint x="100" y="330" as="sourcePoint" />
            <mxPoint x="338.6446609406728" y="215.60660171779807" as="targetPoint" />
          </mxGeometry>
        </mxCell>
        <mxCell id="t60WEqd_9vHMMKLTzPeI-19" value="" style="endArrow=none;html=1;rounded=0;" edge="1" parent="1" target="t60WEqd_9vHMMKLTzPeI-11">
          <mxGeometry relative="1" as="geometry">
            <mxPoint x="110" y="340" as="sourcePoint" />
            <mxPoint x="333.96887355968147" y="293.79402990307335" as="targetPoint" />
          </mxGeometry>
        </mxCell>
        <mxCell id="t60WEqd_9vHMMKLTzPeI-20" value="" style="endArrow=none;html=1;rounded=0;" edge="1" parent="1" target="t60WEqd_9vHMMKLTzPeI-12">
          <mxGeometry relative="1" as="geometry">
            <mxPoint x="120" y="350" as="sourcePoint" />
            <mxPoint x="320.5859642481191" y="361.58799020742003" as="targetPoint" />
          </mxGeometry>
        </mxCell>
        <mxCell id="t60WEqd_9vHMMKLTzPeI-21" value="" style="endArrow=none;html=1;rounded=0;entryX=0;entryY=0.5;entryDx=0;entryDy=0;" edge="1" parent="1" target="t60WEqd_9vHMMKLTzPeI-13">
          <mxGeometry relative="1" as="geometry">
            <mxPoint x="130" y="360" as="sourcePoint" />
            <mxPoint x="331.68439686951297" y="426.12603176049606" as="targetPoint" />
          </mxGeometry>
        </mxCell>
        <mxCell id="t60WEqd_9vHMMKLTzPeI-23" value="" style="endArrow=none;html=1;rounded=0;" edge="1" parent="1" target="t60WEqd_9vHMMKLTzPeI-8">
          <mxGeometry relative="1" as="geometry">
            <mxPoint x="90" y="110" as="sourcePoint" />
            <mxPoint x="250" y="110" as="targetPoint" />
          </mxGeometry>
        </mxCell>
        <mxCell id="t60WEqd_9vHMMKLTzPeI-24" value="" style="endArrow=none;html=1;rounded=0;" edge="1" parent="1" target="t60WEqd_9vHMMKLTzPeI-15">
          <mxGeometry relative="1" as="geometry">
            <mxPoint x="100" y="120" as="sourcePoint" />
            <mxPoint x="270" y="150" as="targetPoint" />
          </mxGeometry>
        </mxCell>
        <mxCell id="t60WEqd_9vHMMKLTzPeI-25" value="" style="endArrow=none;html=1;rounded=0;" edge="1" parent="1" target="t60WEqd_9vHMMKLTzPeI-14">
          <mxGeometry relative="1" as="geometry">
            <mxPoint x="110" y="130" as="sourcePoint" />
            <mxPoint x="581.7945277140882" y="174.93281216324658" as="targetPoint" />
          </mxGeometry>
        </mxCell>
        <mxCell id="t60WEqd_9vHMMKLTzPeI-29" value="&lt;font style=&quot;vertical-align: inherit&quot;&gt;&lt;font style=&quot;vertical-align: inherit&quot;&gt;jenclude&lt;/font&gt;&lt;/font&gt;" style="endArrow=open;endSize=12;dashed=1;html=1;rounded=0;entryX=1;entryY=1;entryDx=0;entryDy=0;" edge="1" parent="1" source="t60WEqd_9vHMMKLTzPeI-12" target="t60WEqd_9vHMMKLTzPeI-7">
          <mxGeometry width="160" relative="1" as="geometry">
            <mxPoint x="330" y="290" as="sourcePoint" />
            <mxPoint x="490" y="290" as="targetPoint" />
          </mxGeometry>
        </mxCell>
        <mxCell id="t60WEqd_9vHMMKLTzPeI-31" value="&lt;font style=&quot;vertical-align: inherit&quot;&gt;&lt;font style=&quot;vertical-align: inherit&quot;&gt;jenclude&lt;/font&gt;&lt;/font&gt;" style="endArrow=open;endSize=12;dashed=1;html=1;rounded=0;entryX=0;entryY=0.5;entryDx=0;entryDy=0;" edge="1" parent="1" source="t60WEqd_9vHMMKLTzPeI-10" target="t60WEqd_9vHMMKLTzPeI-16">
          <mxGeometry width="160" relative="1" as="geometry">
            <mxPoint x="330" y="290" as="sourcePoint" />
            <mxPoint x="490" y="290" as="targetPoint" />
          </mxGeometry>
        </mxCell>
        <mxCell id="t60WEqd_9vHMMKLTzPeI-33" value="&lt;font style=&quot;vertical-align: inherit&quot;&gt;&lt;font style=&quot;vertical-align: inherit&quot;&gt;jinclude&lt;/font&gt;&lt;/font&gt;" style="endArrow=open;endSize=12;dashed=1;html=1;rounded=0;" edge="1" parent="1" target="t60WEqd_9vHMMKLTzPeI-15">
          <mxGeometry width="160" relative="1" as="geometry">
            <mxPoint x="390" y="70" as="sourcePoint" />
            <mxPoint x="550" y="80" as="targetPoint" />
          </mxGeometry>
        </mxCell>
        <mxCell id="t60WEqd_9vHMMKLTzPeI-37" value="&lt;font style=&quot;vertical-align: inherit&quot;&gt;&lt;font style=&quot;vertical-align: inherit&quot;&gt;jenclude&lt;/font&gt;&lt;/font&gt;" style="endArrow=open;endSize=12;dashed=1;html=1;rounded=0;" edge="1" parent="1" source="t60WEqd_9vHMMKLTzPeI-7" target="t60WEqd_9vHMMKLTzPeI-14">
          <mxGeometry width="160" relative="1" as="geometry">
            <mxPoint x="330" y="290" as="sourcePoint" />
            <mxPoint x="490" y="290" as="targetPoint" />
          </mxGeometry>
        </mxCell>
      </root>
    </mxGraphModel>
  </diagram>
</mxfile>
